<svg width="20" height="20" viewBox="0 0 20 20" fill="none" xmlns="http://www.w3.org/2000/svg">
  <path d="M13.75 3.33333H6.25C4.17893 3.33333 2.5 5.01226 2.5 7.08333V13.75C2.5 15.8211 4.17893 17.5 6.25 17.5H13.75C15.8211 17.5 17.5 15.8211 17.5 13.75V7.08333C17.5 5.01226 15.8211 3.33333 13.75 3.33333ZM10 13.5417C8.22607 13.5417 6.79167 12.1073 6.79167 10.3333C6.79167 8.55939 8.22607 7.125 10 7.125C11.7739 7.125 13.2083 8.55939 13.2083 10.3333C13.2083 12.1073 11.7739 13.5417 10 13.5417ZM14.375 7.5C13.8938 7.5 13.5 7.10617 13.5 6.625C13.5 6.14383 13.8938 5.75 14.375 5.75C14.8562 5.75 15.25 6.14383 15.25 6.625C15.25 7.10617 14.8562 7.5 14.375 7.5Z" fill="currentColor"/>
  <path d="M10 12.2084C10.7746 12.2084 11.4167 11.5663 11.4167 10.7917C11.4167 10.0171 10.7746 9.375 10 9.375C9.2254 9.375 8.58333 10.0171 8.58333 10.7917C8.58333 11.5663 9.2254 12.2084 10 12.2084Z" fill="currentColor"/>
</svg>
