<svg width="20" height="20" viewBox="0 0 20 20" fill="none" xmlns="http://www.w3.org/2000/svg">
  <path d="M5.20833 7.29167H2.70833V17.5H5.20833V7.29167Z" fill="currentColor"/>
  <path d="M3.95833 2.5C3.08333 2.5 2.5 3.14583 2.5 3.95833C2.5 4.77083 3.10417 5.41667 3.97917 5.41667C4.875 5.41667 5.41667 4.77083 5.41667 3.95833C5.41667 3.14583 4.89583 2.5 3.95833 2.5Z" fill="currentColor"/>
  <path d="M14.0625 7.08333C12.6042 7.08333 11.5833 7.83333 11.1458 8.54167H11.1042V7.29167H8.70833V17.5H11.2083V12.0833C11.2083 10.875 11.4375 9.70833 12.8958 9.70833C14.3333 9.70833 14.375 11.0417 14.375 12.1667V17.5H16.875V11.8125C16.875 9.25 16.3333 7.08333 14.0625 7.08333Z" fill="currentColor"/>
</svg>
