<svg width="20" height="20" viewBox="0 0 20 20" fill="none" xmlns="http://www.w3.org/2000/svg">
  <path d="M16.6667 5.70833C16.0833 5.95833 15.4583 6.125 14.7917 6.19167C15.4792 5.79167 16 5.125 16.2417 4.33333C15.6125 4.70833 14.9167 4.95833 14.1667 5.08333C13.5729 4.4375 12.7083 4.04167 11.75 4.04167C9.95833 4.04167 8.5 5.5 8.5 7.29167C8.5 7.54167 8.52917 7.79167 8.58333 8.025C5.95833 7.89167 3.625 6.66667 2.04167 4.74167C1.77083 5.1875 1.625 5.70833 1.625 6.27083C1.625 7.3125 2.16667 8.22917 2.97917 8.77083C2.45833 8.75 1.95833 8.60417 1.52083 8.35417V8.39583C1.52083 9.95833 2.625 11.2917 4.08333 11.6042C3.75 11.7 3.39583 11.75 3.02083 11.75C2.75 11.75 2.5 11.7292 2.25 11.6667C2.77083 12.9792 3.97917 13.9167 5.4375 13.9583C4.33333 14.8125 2.9375 15.3333 1.41667 15.3333C1.16667 15.3333 0.916667 15.3125 0.666667 15.2708C2.14583 16.1875 3.875 16.7083 5.75 16.7083C11.75 16.7083 15.2083 11.7917 15.2083 7.66667C15.2083 7.52083 15.2083 7.375 15.2 7.22917C15.8333 6.77083 16.375 6.1875 16.6667 5.54167V5.70833Z" fill="currentColor"/>
</svg>
